<?xml version="1.0" encoding="UTF-8"?><svg id="Layer_2" xmlns="http://www.w3.org/2000/svg" viewBox="0 0 175.31 28.51"><defs><style>.cls-1{fill:#fff;}</style></defs><g id="Capa_1"><g><g><path class="cls-1" d="M26.49,28.34c-.3-.12-.53-.27-.69-.46l.12-.16c.15,.17,.36,.32,.63,.43,.27,.11,.56,.17,.87,.17,.46,0,.8-.09,1.03-.27,.23-.18,.35-.41,.35-.69,0-.22-.06-.39-.18-.52-.12-.13-.27-.23-.45-.3-.18-.07-.42-.14-.73-.21-.33-.08-.59-.16-.79-.24-.2-.08-.37-.2-.51-.36s-.21-.38-.21-.64c0-.21,.06-.41,.17-.59,.11-.18,.29-.32,.52-.43,.23-.11,.52-.16,.87-.16,.25,0,.49,.04,.73,.11s.45,.18,.62,.31l-.1,.18c-.18-.13-.38-.23-.6-.3s-.43-.1-.65-.1c-.44,0-.78,.09-1,.28-.23,.18-.34,.42-.34,.7,0,.22,.06,.4,.19,.53,.12,.13,.28,.23,.46,.3,.18,.07,.42,.14,.73,.21,.33,.08,.59,.16,.79,.24,.2,.08,.37,.19,.5,.35,.14,.16,.21,.37,.21,.63,0,.21-.06,.41-.17,.59-.12,.18-.29,.32-.53,.42-.24,.1-.53,.16-.89,.16-.33,0-.64-.06-.94-.18Z"/><path class="cls-1" d="M33.49,28.21c-.36-.2-.64-.48-.84-.83-.2-.35-.31-.74-.31-1.18s.1-.83,.31-1.18c.2-.35,.48-.63,.84-.83,.36-.2,.76-.3,1.2-.3s.84,.1,1.2,.3c.36,.2,.64,.48,.85,.83,.2,.35,.31,.74,.31,1.18s-.1,.83-.31,1.18c-.2,.35-.49,.63-.85,.83-.36,.2-.76,.3-1.2,.3s-.84-.1-1.2-.3Zm2.29-.18c.33-.18,.58-.43,.77-.75,.19-.32,.28-.68,.28-1.07s-.09-.75-.28-1.07c-.19-.32-.44-.57-.77-.75-.33-.18-.69-.27-1.09-.27s-.76,.09-1.08,.27c-.32,.18-.58,.43-.76,.75-.19,.32-.28,.68-.28,1.07s.09,.75,.28,1.07c.19,.32,.44,.57,.76,.75,.32,.18,.68,.27,1.08,.27s.76-.09,1.09-.27Z"/><path class="cls-1" d="M41.08,24.13v2.08h2.47v.2h-2.47v2.08h-.22v-4.56h2.99v.2h-2.77Z"/><path class="cls-1" d="M48.46,24.13h-1.67v-.2h3.56v.2h-1.67v4.35h-.21v-4.35Z"/><path class="cls-1" d="M59.77,23.93l-1.56,4.56h-.22l-1.48-4.25-1.48,4.25h-.23l-1.55-4.56h.23l1.44,4.24,1.48-4.24h.21l1.48,4.24,1.45-4.24h.22Z"/><path class="cls-1" d="M66.05,27.15h-2.73l-.61,1.33h-.24l2.11-4.56h.21l2.11,4.56h-.24l-.61-1.33Zm-.08-.19l-1.28-2.78-1.28,2.78h2.56Z"/><path class="cls-1" d="M73.59,28.49l-1.12-1.57c-.15,.03-.31,.04-.5,.04h-1.36v1.53h-.22v-4.56h1.58c.57,0,1.01,.13,1.33,.4,.32,.27,.48,.64,.48,1.11,0,.36-.09,.67-.28,.91s-.46,.42-.81,.51l1.17,1.62h-.26Zm-1.61-1.73c.51,0,.9-.11,1.17-.34,.27-.23,.41-.55,.41-.97s-.14-.74-.41-.97c-.27-.23-.66-.34-1.17-.34h-1.37v2.62h1.37Z"/><path class="cls-1" d="M80.74,28.29v.2h-3.08v-4.56h2.99v.2h-2.77v1.94h2.47v.2h-2.47v2.01h2.86Z"/><path class="cls-1" d="M88.86,23.93h1.76c.47,0,.89,.1,1.26,.29,.37,.19,.65,.47,.85,.81,.2,.34,.3,.74,.3,1.17s-.1,.83-.3,1.17c-.2,.34-.49,.61-.85,.81-.37,.2-.79,.29-1.26,.29h-1.76v-4.56Zm1.74,4.35c.44,0,.83-.09,1.16-.27,.33-.18,.59-.42,.77-.74,.18-.31,.27-.67,.27-1.07s-.09-.76-.27-1.07c-.18-.31-.44-.56-.77-.74-.33-.18-.72-.27-1.16-.27h-1.52v4.15h1.52Z"/><path class="cls-1" d="M99.92,28.29v.2h-3.08v-4.56h2.99v.2h-2.77v1.94h2.47v.2h-2.47v2.01h2.86Z"/><path class="cls-1" d="M107.24,23.93l-2.04,4.56h-.21l-2.04-4.56h.25l1.91,4.27,1.91-4.27h.23Z"/><path class="cls-1" d="M113.71,28.29v.2h-3.08v-4.56h2.99v.2h-2.77v1.94h2.47v.2h-2.47v2.01h2.86Z"/><path class="cls-1" d="M117.58,23.93h.22v4.35h2.67v.2h-2.89v-4.56Z"/><path class="cls-1" d="M124.56,28.21c-.36-.2-.64-.48-.84-.83-.2-.35-.31-.74-.31-1.18s.1-.83,.31-1.18c.2-.35,.48-.63,.84-.83,.36-.2,.76-.3,1.2-.3s.84,.1,1.2,.3c.36,.2,.64,.48,.85,.83,.2,.35,.31,.74,.31,1.18s-.1,.83-.31,1.18c-.2,.35-.49,.63-.85,.83-.36,.2-.76,.3-1.2,.3s-.84-.1-1.2-.3Zm2.29-.18c.33-.18,.58-.43,.77-.75,.19-.32,.28-.68,.28-1.07s-.09-.75-.28-1.07c-.19-.32-.44-.57-.77-.75-.33-.18-.69-.27-1.09-.27s-.76,.09-1.08,.27c-.32,.18-.58,.43-.76,.75-.19,.32-.28,.68-.28,1.07s.09,.75,.28,1.07c.19,.32,.44,.57,.76,.75,.32,.18,.68,.27,1.08,.27s.76-.09,1.09-.27Z"/><path class="cls-1" d="M134.84,24.33c.32,.27,.48,.64,.48,1.11s-.16,.85-.48,1.12c-.32,.27-.76,.4-1.33,.4h-1.36v1.53h-.22v-4.56h1.58c.57,0,1.01,.13,1.33,.4Zm-.15,2.08c.27-.23,.41-.55,.41-.97s-.14-.74-.41-.97c-.27-.23-.66-.34-1.17-.34h-1.37v2.62h1.37c.51,0,.9-.11,1.17-.34Z"/><path class="cls-1" d="M142.17,28.29v.2h-3.08v-4.56h2.99v.2h-2.77v1.94h2.47v.2h-2.47v2.01h2.86Z"/><path class="cls-1" d="M149.25,28.49l-1.12-1.57c-.15,.03-.31,.04-.5,.04h-1.36v1.53h-.22v-4.56h1.58c.57,0,1.01,.13,1.33,.4,.32,.27,.48,.64,.48,1.11,0,.36-.09,.67-.28,.91s-.46,.42-.81,.51l1.17,1.62h-.26Zm-1.61-1.73c.51,0,.9-.11,1.17-.34,.27-.23,.41-.55,.41-.97s-.14-.74-.41-.97c-.27-.23-.66-.34-1.17-.34h-1.37v2.62h1.37Z"/></g><g><path class="cls-1" d="M5.34,8.89l-2.97,4.06H0l2.91-4.06L0,4.85H2.37l2.97,4.04Z"/><path class="cls-1" d="M158.5,15.5c-.91-.49-1.61-1.17-2.12-2.04-.51-.87-.76-1.86-.76-2.96s.25-2.09,.76-2.95c.51-.86,1.22-1.54,2.12-2.03s1.93-.73,3.06-.73,2.17,.24,3.08,.73,1.62,1.17,2.13,2.03c.51,.87,.76,1.85,.76,2.95s-.25,2.09-.76,2.96c-.51,.87-1.22,1.55-2.13,2.04s-1.93,.73-3.08,.73-2.15-.24-3.06-.73Zm5.44-2.47c.63-.64,.94-1.49,.94-2.53s-.31-1.89-.94-2.53c-.63-.64-1.42-.96-2.39-.96s-1.75,.32-2.38,.96c-.62,.64-.93,1.49-.93,2.53s.31,1.89,.93,2.53c.62,.64,1.41,.96,2.38,.96s1.76-.32,2.39-.96Z"/><path class="cls-1" d="M175.31,4.85l-2.91,4.04,2.91,4.06h-2.37l-2.97-4.06,2.97-4.04h2.37Z"/><path class="cls-1" d="M26.41,5.98c.87,.79,1.31,1.98,1.31,3.57v6.55h-2.47v-1.36c-.32,.49-.78,.86-1.37,1.12-.59,.26-1.31,.39-2.15,.39s-1.57-.14-2.2-.43c-.63-.29-1.11-.68-1.45-1.19-.34-.51-.51-1.08-.51-1.73,0-1,.37-1.81,1.12-2.42,.75-.61,1.92-.91,3.53-.91h2.89v-.17c0-.78-.23-1.38-.7-1.8-.47-.42-1.16-.63-2.08-.63-.63,0-1.25,.1-1.85,.29-.61,.2-1.12,.47-1.54,.82l-1.03-1.91c.59-.45,1.29-.79,2.11-1.03,.82-.24,1.7-.36,2.62-.36,1.65,0,2.91,.39,3.78,1.18Zm-2.39,7.91c.51-.3,.87-.73,1.08-1.29v-1.3h-2.7c-1.51,0-2.26,.5-2.26,1.49,0,.47,.19,.85,.57,1.13,.38,.28,.9,.42,1.57,.42s1.24-.15,1.75-.45Z"/><path class="cls-1" d="M41.32,4.92l-4.79,11.18h-2.7l-4.79-11.18h2.72l3.47,8.29,3.58-8.29h2.51Z"/><g><path class="cls-1" d="M43.13,2.58c-.31-.29-.46-.65-.46-1.08s.15-.79,.46-1.07c.31-.29,.69-.43,1.15-.43s.84,.14,1.15,.41c.31,.28,.46,.62,.46,1.03,0,.44-.15,.81-.45,1.12-.3,.3-.69,.45-1.16,.45s-.84-.14-1.15-.43Z"/><rect class="cls-1" x="42.96" y="4.92" width="2.62" height="11.18"/></g><path class="cls-1" d="M7.27,17.69c-.79-.37-1.43-.89-1.94-1.56l1.55-1.86c.81,1.12,1.78,1.67,2.91,1.67,1.52,0,2.28-.9,2.28-2.7V7.2h-2.01v-2.28h4.73V13.09c0,1.72-.42,3-1.26,3.86s-2.07,1.29-3.68,1.29c-.94,0-1.8-.19-2.59-.55Z"/><path class="cls-1" d="M59.47,11.35h-8.77c.15,.82,.55,1.48,1.2,1.96,.65,.48,1.45,.72,2.42,.72,1.23,0,2.24-.4,3.04-1.21l1.4,1.61c-.5,.6-1.14,1.05-1.9,1.36-.77,.31-1.63,.46-2.6,.46-1.23,0-2.31-.24-3.24-.73-.94-.49-1.66-1.17-2.17-2.04-.51-.87-.76-1.86-.76-2.96s.25-2.07,.74-2.94c.5-.87,1.18-1.55,2.06-2.04s1.87-.73,2.97-.73,2.06,.24,2.92,.72c.86,.48,1.53,1.16,2.01,2.03,.48,.87,.72,1.88,.72,3.03,0,.18-.01,.44-.04,.77Zm-7.73-3.72c-.58,.5-.93,1.16-1.06,1.98h6.34c-.11-.81-.45-1.47-1.03-1.97-.57-.5-1.28-.75-2.14-.75s-1.55,.25-2.12,.74Z"/><path class="cls-1" d="M68.6,4.81l-.84,2.41c-1.02,0-1.68,.29-2.25,.89-.57,.59-.86,1.45-.86,2.56v5.42h-2.62V4.92h2.49v1.63c.75-1.17,1.7-1.49,4.08-1.74Z"/><path class="cls-1" d="M91.22,15.51c-.91-.49-1.62-1.17-2.12-2.04-.51-.87-.76-1.86-.76-2.96s.25-2.09,.76-2.95c.51-.86,1.22-1.54,2.12-2.03,.91-.49,1.93-.73,3.06-.73s2.17,.24,3.08,.73c.91,.49,1.62,1.17,2.12,2.03,.51,.87,.76,1.85,.76,2.95s-.25,2.09-.76,2.96c-.51,.87-1.22,1.55-2.12,2.04-.91,.49-1.93,.73-3.08,.73s-2.15-.24-3.06-.73Zm5.44-2.47c.63-.64,.94-1.49,.94-2.53s-.31-1.89-.94-2.53c-.63-.64-1.42-.96-2.39-.96s-1.76,.32-2.38,.96c-.62,.64-.93,1.49-.93,2.53s.31,1.89,.93,2.53c.62,.64,1.41,.96,2.38,.96s1.76-.32,2.39-.96Z"/><path class="cls-1" d="M112.48,6.03c.85,.82,1.28,2.04,1.28,3.66v6.41h-2.62v-6.07c0-.98-.23-1.71-.69-2.21-.46-.5-1.12-.74-1.97-.74-.96,0-1.72,.29-2.28,.87-.56,.58-.84,1.41-.84,2.5v5.65h-2.62V4.92h2.49v1.44c.43-.52,.98-.91,1.63-1.17,.66-.26,1.4-.4,2.22-.4,1.41,0,2.54,.41,3.39,1.24Z"/><path class="cls-1" d="M123.81,15.49c-.31,.25-.68,.44-1.12,.57-.44,.13-.9,.19-1.39,.19-1.23,0-2.18-.32-2.85-.96-.67-.64-1-1.58-1-2.81V7.1h-1.84v-2.09h1.84V2.45h2.62v2.55h2.99v2.09h-2.99v5.32c0,.54,.13,.96,.4,1.25s.65,.43,1.15,.43c.59,0,1.07-.15,1.47-.46l.73,1.86Z"/><path class="cls-1" d="M134.01,5.98c.87,.79,1.31,1.98,1.31,3.57v6.55h-2.47v-1.36c-.32,.49-.78,.86-1.37,1.12-.59,.26-1.31,.39-2.15,.39s-1.57-.14-2.2-.43c-.63-.29-1.11-.68-1.45-1.19-.34-.51-.51-1.08-.51-1.73,0-1,.37-1.81,1.12-2.42,.75-.61,1.92-.91,3.53-.91h2.89v-.17c0-.78-.23-1.38-.7-1.8-.47-.42-1.16-.63-2.08-.63-.63,0-1.25,.1-1.85,.29-.61,.2-1.12,.47-1.54,.82l-1.03-1.91c.59-.45,1.29-.79,2.11-1.03,.82-.24,1.7-.36,2.62-.36,1.65,0,2.91,.39,3.78,1.18Zm-2.39,7.91c.51-.3,.87-.73,1.08-1.29v-1.3h-2.7c-1.51,0-2.26,.5-2.26,1.49,0,.47,.19,.85,.57,1.13,.38,.28,.9,.42,1.57,.42s1.24-.15,1.75-.45Z"/><path class="cls-1" d="M138.67,.56h2.62v15.53h-2.62V.56Z"/><path class="cls-1" d="M155.19,4.92l-4.79,11.18h-2.7l-4.79-11.18h2.72l3.47,8.29,3.58-8.29h2.51Z"/><rect class="cls-1" x="61.26" y="8.74" width="18.71" height="1" transform="translate(38.51 72.81) rotate(-70.66)"/><polygon class="cls-1" points="83.32 2.92 79.11 10.27 75.81 4.66 72.53 14.04 72.53 16.1 75.15 16.1 75.15 8.89 78.45 14.12 79.68 14.12 82.98 8.75 83 16.1 85.6 16.1 85.6 2.92 83.32 2.92"/></g></g></g></svg>